<svg width="60" height="60" viewBox="0 0 60 60" fill="none" xmlns="http://www.w3.org/2000/svg">
<circle cx="30" cy="30" r="30" fill="#6DBF56"/>
<path d="M30.0931 44.9353L26.7443 41.4439L27.4264 38.6637L30.8373 37.9525L32.2016 38.6637" stroke="black"/>
<path d="M18.6823 31.0991L43.4264 21.3932M43.4264 21.3932L50.0001 18.1681V15.5819L47.7675 15L43.4264 21.3932Z" stroke="black"/>
<path d="M18.3826 19.0152L17.3574 18.8794L14.5833 21.1423H10L12.2916 25.3449M18.3826 19.0152L22.7247 19.5906L21.5185 23.179M18.3826 19.0152V25.3449L20.3124 26.7673L21.5185 23.179M21.5185 23.179L25.0163 30.388L33.7004 34.9139L36.4745 38.9872V41.9613L34.2432 45.0001H27.5492H37.6806L40.6357 41.0561L37.6806 32.457V30.388" stroke="black"/>
<path d="M11.9844 25.2156H16.7596M18.1859 25.2156H16.7596M16.7596 25.2156L20.5425 37.3061M20.5425 37.3061L17.5038 45.0001H15.5813M20.5425 37.3061L24.5735 44.0302L23.8914 45.0001H22.2789" stroke="black"/>
<ellipse cx="15.8295" cy="21.3362" rx="0.620155" ry="0.646552" fill="black"/>
</svg>
